<svg width="151" height="63" viewBox="0 0 151 63" fill="none" xmlns="http://www.w3.org/2000/svg">
<rect width="151" height="62.0024" rx="8" fill="#F2F2F3"/>
<path d="M88.2295 37.1796V19.0024H92.0497V37.1796H88.2295Z" fill="url(#paint0_linear_1792_7833)"/>
<path fill-rule="evenodd" clip-rule="evenodd" d="M66.3941 20.7839C67.5087 21.2793 68.3661 21.9938 68.9663 22.9274C69.5761 23.861 69.8714 24.9661 69.8714 26.2618C69.8714 27.5289 69.5761 28.634 68.9663 29.5676C68.3661 30.5012 67.5087 31.2158 66.3941 31.7111C65.2795 32.2065 63.9648 32.4542 62.4214 32.4542H58.9727V37.1891H55V20.0312H62.4214C63.9648 20.0312 65.2795 20.2885 66.3941 20.7839ZM62.2023 29.2246C63.4312 29.2246 64.3458 28.9674 64.946 28.4434C65.5557 27.9195 65.8606 27.1859 65.8606 26.2618C65.8606 25.3091 65.5557 24.5755 64.946 24.0516C64.3458 23.5276 63.4312 23.2704 62.2023 23.2704H58.9727V29.2246H62.2023Z" fill="url(#paint1_linear_1792_7833)"/>
<path fill-rule="evenodd" clip-rule="evenodd" d="M74.7112 36.4937C75.7973 37.0844 77.0453 37.3797 78.4457 37.3797C79.8366 37.3797 81.0847 37.0939 82.1707 36.4937C83.2663 35.9126 84.1237 35.1028 84.743 34.0834C85.3622 33.0545 85.6766 31.8922 85.6766 30.5871C85.6766 29.2533 85.3622 28.072 84.743 27.0621C84.1237 26.0428 83.2663 25.252 82.1707 24.6709C81.0751 24.0898 79.8366 23.804 78.4457 23.804C77.0453 23.804 75.7973 24.0898 74.7112 24.6709C73.6251 25.252 72.7677 26.0523 72.139 27.0717C71.5102 28.091 71.1958 29.2628 71.1958 30.5871C71.1958 31.9018 71.5102 33.064 72.139 34.0834C72.7677 35.1028 73.6251 35.903 74.7112 36.4937ZM80.1606 33.8071C79.6556 34.1025 79.084 34.2454 78.4457 34.2454C77.817 34.2454 77.2453 34.1025 76.7309 33.8071C76.226 33.5213 75.8258 33.0926 75.521 32.5496C75.2161 32.0066 75.0637 31.3587 75.0637 30.6061C75.0637 29.8344 75.2161 29.1866 75.521 28.6436C75.8163 28.1101 76.226 27.6909 76.7309 27.3956C77.2358 27.1002 77.8074 26.9573 78.4457 26.9573C79.084 26.9573 79.6556 27.1002 80.1606 27.3956C80.6655 27.6909 81.0656 28.1006 81.3609 28.6436C81.6563 29.1866 81.7992 29.8344 81.7992 30.6061C81.7992 31.3492 81.6563 32.0066 81.3609 32.5496C81.0656 33.0926 80.6655 33.5118 80.1606 33.8071Z" fill="url(#paint2_linear_1792_7833)"/>
<path d="M103.225 37.9991L109.179 24.0042H105.502L101.777 32.9689L98.0801 24.0042H94.136L99.8426 37.3036L99.795 37.4084C99.5282 37.9991 99.2424 38.4183 98.928 38.6659C98.6041 38.9232 98.1754 39.047 97.6419 39.047C97.2608 39.047 96.8797 38.9803 96.4987 38.8279C96.1176 38.685 95.7746 38.4754 95.4793 38.2182L94.0884 40.9333C94.5076 41.3144 95.0601 41.6097 95.727 41.8193C96.3939 42.0289 97.0703 42.1337 97.7562 42.1337C98.5565 42.1337 99.29 42.0194 99.9569 41.7717C100.614 41.524 101.214 41.1048 101.767 40.4951C102.31 39.8949 102.796 39.0565 103.225 37.9991Z" fill="url(#paint3_linear_1792_7833)"/>
<path d="M119.125 37.4844C116.696 37.4844 114.79 36.808 113.419 35.4552C112.047 34.1024 111.361 32.1589 111.361 29.6438V20.0312H115.334V29.4914C115.334 31.1205 115.667 32.3018 116.334 33.0163C117.001 33.7308 117.944 34.0929 119.154 34.0929C120.364 34.0929 121.297 33.7308 121.974 33.0163C122.641 32.3018 122.974 31.1205 122.974 29.4914V20.0312H126.899V29.6343C126.899 32.1494 126.213 34.0833 124.841 35.4457C123.469 36.808 121.564 37.4844 119.125 37.4844Z" fill="url(#paint4_linear_1792_7833)"/>
<path d="M130.329 20.0408V37.1891H134.301V20.0408H130.329Z" fill="url(#paint5_linear_1792_7833)"/>
<path d="M16 46.0024V35.6753C16 34.9989 16.162 34.332 16.524 33.7604C17.5815 32.1218 19.6202 31.7407 21.1445 32.6172L25.5268 35.1513C26.832 35.9039 28.4516 35.9039 29.7567 35.1513L32.691 33.4555C33.9962 32.7029 34.806 31.3025 34.806 29.7972V26.4057C34.806 24.8909 33.9962 23.5 32.691 22.7474L29.7567 21.0516C28.4516 20.299 26.832 20.299 25.5268 21.0516L19.3534 24.6051C18.1245 22.4616 18.858 19.7274 20.9921 18.4889L23.2785 17.1647C25.9746 15.6118 29.2899 15.6118 31.986 17.1647L34.9298 18.8604C37.6259 20.4133 39.2836 23.2904 39.2836 26.3962V29.7877C39.2836 32.8935 37.6259 35.7706 34.9298 37.3234L31.9956 39.0192C29.2995 40.5721 25.9841 40.5721 23.288 39.0192L20.4776 37.3997V41.5248C20.4776 44.0017 18.477 46.0024 16 46.0024Z" fill="url(#paint6_linear_1792_7833)"/>
<defs>
<linearGradient id="paint0_linear_1792_7833" x1="92.5" y1="20" x2="115" y2="61.5" gradientUnits="userSpaceOnUse">
<stop stop-color="#0A5BE8"/>
<stop offset="1" stop-color="#00348E"/>
</linearGradient>
<linearGradient id="paint1_linear_1792_7833" x1="92.5" y1="20" x2="115" y2="61.5" gradientUnits="userSpaceOnUse">
<stop stop-color="#0A5BE8"/>
<stop offset="1" stop-color="#00348E"/>
</linearGradient>
<linearGradient id="paint2_linear_1792_7833" x1="92.5" y1="20" x2="115" y2="61.5" gradientUnits="userSpaceOnUse">
<stop stop-color="#0A5BE8"/>
<stop offset="1" stop-color="#00348E"/>
</linearGradient>
<linearGradient id="paint3_linear_1792_7833" x1="92.5" y1="20" x2="115" y2="61.5" gradientUnits="userSpaceOnUse">
<stop stop-color="#0A5BE8"/>
<stop offset="1" stop-color="#00348E"/>
</linearGradient>
<linearGradient id="paint4_linear_1792_7833" x1="92.5" y1="20" x2="115" y2="61.5" gradientUnits="userSpaceOnUse">
<stop stop-color="#0A5BE8"/>
<stop offset="1" stop-color="#00348E"/>
</linearGradient>
<linearGradient id="paint5_linear_1792_7833" x1="92.5" y1="20" x2="115" y2="61.5" gradientUnits="userSpaceOnUse">
<stop stop-color="#0A5BE8"/>
<stop offset="1" stop-color="#00348E"/>
</linearGradient>
<linearGradient id="paint6_linear_1792_7833" x1="19.5547" y1="20.2102" x2="39.9202" y2="36.5766" gradientUnits="userSpaceOnUse">
<stop stop-color="#0A5BE8"/>
<stop offset="1" stop-color="#00348E"/>
</linearGradient>
</defs>
</svg>
