<svg width="61" height="78" fill="none" xmlns="http://www.w3.org/2000/svg">
    <path d="M7.99645e-06 78V51.1513C-0.0273021 49.3963 0.444498 47.6698 1.36028 46.1734C2.58872 44.2223 4.52316 42.8231 6.75836 42.269C8.99356 41.7148 11.3561 42.0487 13.351 43.2007L24.7226 49.7896C26.3923 50.7507 28.2843 51.2564 30.21 51.2564C32.1356 51.2564 34.0277 50.7507 35.6974 49.7896L43.3123 45.3806C44.979 44.4161 46.3634 43.0298 47.327 41.3606C48.2906 39.6913 48.7995 37.7978 48.8027 35.8695V27.0524C48.8028 25.1237 48.2955 23.2291 47.3319 21.5594C46.3684 19.8896 44.9827 18.5037 43.3143 17.5414L35.6994 13.1333C34.0297 12.1723 32.1377 11.6665 30.212 11.6665C28.2863 11.6665 26.3943 12.1723 24.7246 13.1333L8.70234 22.371C7.17073 19.6953 6.75832 16.521 7.5552 13.5416C8.35207 10.5623 10.2935 8.01988 12.9553 6.46983L18.8888 3.02611C22.3246 1.0428 26.2204 -0.00114441 30.1858 -0.00114441C34.1512 -0.00114441 38.047 1.0428 41.4828 3.02611L49.1219 7.43516C52.5573 9.41889 55.4104 12.2742 57.3942 15.7138C59.3779 19.1534 60.4222 23.0558 60.4219 27.0282V35.8453C60.4219 39.8173 59.3776 43.7192 57.3941 47.1584C55.4106 50.5975 52.5578 53.4526 49.1229 55.4363L41.509 59.8444C38.0727 61.8281 34.1764 62.8723 30.2105 62.8723C26.2445 62.8723 22.3482 61.8281 18.9119 59.8444L11.6192 55.635V66.3596C11.6209 67.8887 11.3216 69.4031 10.7383 70.8162C10.155 72.2293 9.29916 73.5132 8.21987 74.5944C7.14059 75.6757 5.85901 76.5331 4.44853 77.1174C3.03804 77.7018 1.52635 78.0017 7.99645e-06 78Z" fill="url(#p0)"/>
    <defs>
        <linearGradient id="p0" x1="0" y1="0" x2="6" y2="78" gradientUnits="userSpaceOnUse">
            <stop stop-color="#0A5BE8"/>
            <stop offset="1" stop-color="#00348E"/>
        </linearGradient>
    </defs>
</svg>
